<svg xmlns="http://www.w3.org/2000/svg" width="5.54cm" height="8.64cm" viewBox="0 0 157.08 245">
  <defs>
    <style>
      .a {
        fill: #e2001a;
      }

      .b {
        fill: #767676;
      }

      .c {
        fill: none;
        stroke: #767676;
        stroke-miterlimit: 10;
        stroke-width: 4px;
      }
    </style>
  </defs>
  <title>beutel0</title>
  <g>
    <path class="a" d="M43.36,239l68.33,1c20.62,0,40-25.22,40-40.81l-20,22.33h-106L6.13,200.29C6.13,215.89,22.74,239,43.36,239Z"/>
    <path class="b" d="M3.79,193.56a48.74,48.74,0,0,0,48.75,48.75h52a48.75,48.75,0,0,0,48.75-48.75V98.81c0-.46,0-.91,0-1.37s0-.91,0-1.36V86.57c0-20-8.84-27.62-21.54-33.37-6.29-3.57-10.53-14.31-10.54-22.05h-8V16.31H96.88v9.84H87.93V2.69h-19V26.15H60.19V16.31H43.88V31.15H35.83C35.82,39,31.45,49.8,25,53.34,12.49,59.15,3.79,66.9,3.79,86.57v9.51c0,.45,0,.91,0,1.36s0,.91,0,1.37M100.3,19.92H110V31.56H100.3Zm-27.5-12H84.17V31.56H72.8Zm-25.44,12h9.31V31.56H47.36ZM15.69,85.17c0-22.61,31.67-22.77,31.67-38.41h0V34.81h9.31v11a3.75,3.75,0,0,0,3.75,3.75h8.63a3.75,3.75,0,0,0,3.75-3.75v-11H84.17v11a3.75,3.75,0,0,0,3.75,3.75h8.63a3.75,3.75,0,0,0,3.75-3.75v-11H110V46.76h0c0,15.64,31.66,16.14,31.66,38.41V195.66c0,15.6-16.71,33.24-37.33,33.24H53c-20.61,0-37.33-17.64-37.33-33.24"/>
    <line class="c" x1="103.79" y1="216.8" x2="146.3" y2="216.8"/>
    <line class="c" x1="103.79" y1="183.27" x2="146.3" y2="183.27"/>
    <line class="c" x1="103.79" y1="149.73" x2="146.3" y2="149.73"/>
    <line class="c" x1="103.79" y1="116.2" x2="146.3" y2="116.2"/>
    <line class="c" x1="103.79" y1="82.66" x2="146.3" y2="82.66"/>
  </g>
</svg>
